<svg width="250" height="250" viewBox="0 0 250 250" fill="none" xmlns="http://www.w3.org/2000/svg">
<rect width="250" height="250" rx="55" fill="#137FEC"/>
<path d="M52.5 62.1667C52.5 56.8279 56.8279 52.5 62.1667 52.5H93.5833C98.9221 52.5 103.25 56.8279 103.25 62.1667V93.5833C103.25 98.9221 107.578 103.25 112.917 103.25H137.083C142.422 103.25 146.75 107.578 146.75 112.917V137.083C146.75 142.422 151.078 146.75 156.417 146.75H187.833C193.172 146.75 197.5 151.078 197.5 156.417V187.833C197.5 193.172 193.172 197.5 187.833 197.5H62.1667C56.8279 197.5 52.5 193.172 52.5 187.833V62.1667Z" fill="white"/>
</svg>
